<svg width="160" height="160" viewBox="0 0 160 160" fill="none" xmlns="http://www.w3.org/2000/svg">
  <rect x="1" y="1" width="158" height="158" rx="40" fill="none" stroke="#D8C29D" stroke-width="2"/>
  <path d="M51 98V48C51 39.1634 58.1634 32 67 32H93C101.837 32 109 39.1634 109 48V98" stroke="#F7F3EC" stroke-width="5" stroke-linecap="round"/>
  <path d="M37 104C37 95.1634 44.1634 88 53 88H107C115.837 88 123 95.1634 123 104V109C123 117.837 115.837 125 107 125H53C44.1634 125 37 117.837 37 109V104Z" stroke="#F7F3EC" stroke-width="5"/>
  <circle cx="80" cy="106" r="20" stroke="#D8C29D" stroke-width="5"/>
  <path d="M62 28L67.5 16L73 28L85 33.5L73 39L67.5 51L62 39L50 33.5L62 28Z" fill="#D8C29D"/>
</svg>
