<svg xmlns="http://www.w3.org/2000/svg" viewBox="0 0 1000 500" role="img" aria-labelledby="title desc">
  <title id="title">Kirubel Photo &amp; Video 4U logo</title>
  <desc id="desc">Transparent SVG logo with Kirubel wordmark, camera outline, stars, orange lens and film strip.</desc>
  <defs>
    <style>
      .blk{fill:#0a0a0a}
      .st{stroke:#0a0a0a;stroke-width:16;stroke-linecap:round;stroke-linejoin:round;fill:none}
      .org{fill:#ff7a1a}
      .thin{fill:none;stroke:#0a0a0a;stroke-width:2.2;stroke-linecap:round;stroke-linejoin:round}
      .num{font-family: Georgia, 'Times New Roman', serif; font-size:40px; letter-spacing:6px; fill:#111}
      .sub{font-family: Georgia, 'Times New Roman', serif; font-weight:700; font-size:56px; fill:#111}
      .name{font-family: 'Brush Script MT', 'Segoe Script', cursive; font-size:112px; fill:#111}
    </style>
  </defs>
  <g transform="translate(25,20)">
    <text x="85" y="215" class="name">Kirubel</text>
    <text x="78" y="290" class="sub">Photo &amp; Video 4U</text>
    <text x="88" y="365" class="num">0041765221262</text>

    <path class="blk" d="M535 108l10 33 33 10-33 10-10 33-10-33-33-10 33-10z"/>
    <path class="blk" d="M590 95l5 15 15 5-15 5-5 15-5-15-15-5 15-5z"/>
    <path class="blk" d="M598 148l6 17 17 6-17 6-6 17-6-17-17-6 17-6z"/>

    <path class="st" d="M650 70c6-18 20-29 39-29h124c21 0 39 18 39 39v13h84c18 0 33 15 33 33v216c0 18-15 33-33 33h-128"/>
    <path class="st" d="M807 375h-116"/>

    <path class="org" d="M706 138c37 0 69 13 96 38 14 13 24 28 29 43-15-13-28-21-42-26-24-10-50-15-77-15-33 0-61 8-86 23 5-13 14-25 27-37 16-15 34-26 53-32z"/>
    <path class="org" d="M717 163c28 0 53 10 73 29 16 15 26 33 30 51-11-9-21-16-31-20-18-8-38-11-58-11-27 0-49 7-69 20 4-10 11-21 20-31 10-12 22-21 35-28z"/>

    <path class="thin" d="M5 423c48 6 90 11 127 12 66 3 133-2 200-14 59-11 113-16 162-14 72 2 126 17 162 44"/>
    <path class="thin" d="M35 423c44 6 84 10 119 11 62 3 126-2 192-14 56-10 107-15 154-14 67 2 117 16 150 40"/>
    <path class="thin" d="M87 428c12-2 23-3 35-4 0 0 18 14 26 15m12-16c11-1 23-1 35-1 0 0 14 17 22 19m12-20c10 0 20 0 30 1 0 0 12 18 20 20m14-19c10 1 20 2 30 4 0 0 10 17 18 18m13-16c10 2 20 4 30 7 0 0 9 14 16 16m16-13c9 3 19 6 28 10"/>
  </g>
</svg>
